<?xml version="1.0" encoding="UTF-8" standalone="no"?>
<svg
   xmlns:dc="http://purl.org/dc/elements/1.1/"
   xmlns:cc="http://creativecommons.org/ns#"
   xmlns:rdf="http://www.w3.org/1999/02/22-rdf-syntax-ns#"
   xmlns:svg="http://www.w3.org/2000/svg"
   xmlns="http://www.w3.org/2000/svg"
   width="17.095354mm"
   height="17.032454mm"
   viewBox="0 0 60.574089 60.351213"
   id="svg2"
   version="1.1">
  <defs
     id="defs4" />
  <metadata
     id="metadata7">
    <rdf:RDF>
      <cc:Work
         rdf:about="">
        <dc:format>image/svg+xml</dc:format>
        <dc:type
           rdf:resource="http://purl.org/dc/dcmitype/StillImage" />
        <dc:title></dc:title>
      </cc:Work>
    </rdf:RDF>
  </metadata>
  <g
     transform="translate(-398.142,-792.89161)"
     id="layer1">
    <path
       style="fill:#101010"
       d="m 419.55637,852.23011 c -9.73381,-3.19781 -18.18989,-12.22765 -20.58545,-21.98219 -3.3527,-13.65199 3.71567,-28.3947 16.67093,-34.77106 7.0035,-3.447 18.82726,-3.447 25.83075,0 6.05648,2.9809 11.7189,8.68732 14.77311,14.88793 3.33786,6.77647 3.28595,18.71294 -0.11139,25.61572 -5.10738,10.37725 -14.49118,16.60493 -25.93451,17.21175 -3.78843,0.20089 -8.36165,-0.21252 -10.64344,-0.96215 z m 18.67657,-3.64728 c 10.1952,-3.87387 17.82429,-14.81055 17.82429,-25.55202 0,-14.39667 -13.10204,-27.47321 -27.52679,-27.47321 -10.63016,0 -21.7345,7.73693 -25.48277,17.75511 -8.26014,22.0772 13.22515,43.61431 35.18527,35.27012 z m -21.17571,-20.95191 c 0,-8.15366 -0.27643,-9.98442 -1.54767,-10.25 -0.96691,-0.20199 1.08403,-2.28907 5.46553,-5.56183 3.85726,-2.88118 7.42949,-5.35618 7.9383,-5.5 0.50881,-0.14382 4.19855,2.21351 8.19942,5.23851 4.88177,3.69103 6.72671,5.60634 5.60937,5.82332 -1.00704,0.19557 -1.66495,1.28224 -1.66495,2.75 0,2.21195 -0.40104,2.42668 -4.53222,2.42668 -3.63283,0 -4.68041,-0.40057 -5.27894,-2.01855 -0.69133,-1.86884 -1.03895,-1.71928 -4.6867,2.01636 l -3.94,4.03492 4.21893,4.21893 c 3.77535,3.77535 4.21893,3.98391 4.21893,1.98363 0,-2.01568 0.49123,-2.23529 5,-2.23529 l 5,0 0,3.5 0,3.5 -12,0 -12,0 0,-9.92668 z"
       id="path3512" />
  </g>
</svg>
