<?xml version="1.0" encoding="UTF-8" standalone="no"?>
<svg
   xmlns:dc="http://purl.org/dc/elements/1.1/"
   xmlns:cc="http://creativecommons.org/ns#"
   xmlns:rdf="http://www.w3.org/1999/02/22-rdf-syntax-ns#"
   xmlns:svg="http://www.w3.org/2000/svg"
   xmlns="http://www.w3.org/2000/svg"
   width="17.095354mm"
   height="17.032454mm"
   viewBox="0 0 60.574089 60.351213"
   id="svg2"
   version="1.1">
  <defs
     id="defs4" />
  <metadata
     id="metadata7">
    <rdf:RDF>
      <cc:Work
         rdf:about="">
        <dc:format>image/svg+xml</dc:format>
        <dc:type
           rdf:resource="http://purl.org/dc/dcmitype/StillImage" />
        <dc:title></dc:title>
      </cc:Work>
    </rdf:RDF>
  </metadata>
  <g
     transform="translate(-374.90847,-711.57429)"
     id="layer1">
    <path
       style="fill:#101010"
       d="m 396.32284,770.9128 c -9.73381,-3.19782 -18.18989,-12.22766 -20.58545,-21.9822 -3.3527,-13.65199 3.71567,-28.3947 16.67093,-34.77106 7.0035,-3.447 18.82726,-3.447 25.83076,0 6.05647,2.9809 11.71889,8.68732 14.7731,14.88793 3.33786,6.77647 3.28595,18.71294 -0.11139,25.61572 -5.10738,10.37725 -14.49118,16.60493 -25.93451,17.21175 -3.78843,0.20089 -8.36165,-0.21252 -10.64344,-0.96214 z m 18.67657,-3.64729 c 10.1952,-3.87387 17.82429,-14.81055 17.82429,-25.55202 0,-14.39667 -13.10204,-27.47321 -27.52679,-27.47321 -10.63016,0 -21.7345,7.73694 -25.48277,17.75511 -8.26014,22.0772 13.22515,43.61431 35.18527,35.27012 z M 396.8237,741.68126 c 0,-8.00746 0.3375,-14.3813 0.75,-14.1641 4.71468,2.4825 23.24636,14.12519 23.23511,14.59766 -0.0168,0.70404 -22.10908,14.12546 -23.2512,14.12546 -0.40365,0 -0.73391,-6.55156 -0.73391,-14.55902 z"
       id="path3438" />
  </g>
</svg>
