<?xml version="1.0" encoding="UTF-8" standalone="no"?>
<svg
   xmlns:dc="http://purl.org/dc/elements/1.1/"
   xmlns:cc="http://creativecommons.org/ns#"
   xmlns:rdf="http://www.w3.org/1999/02/22-rdf-syntax-ns#"
   xmlns:svg="http://www.w3.org/2000/svg"
   xmlns="http://www.w3.org/2000/svg"
   width="17.015421mm"
   height="17.036331mm"
   viewBox="0 0 60.290862 60.364953"
   id="svg2"
   version="1.1">
  <defs
     id="defs4" />
  <metadata
     id="metadata7">
    <rdf:RDF>
      <cc:Work
         rdf:about="">
        <dc:format>image/svg+xml</dc:format>
        <dc:type
           rdf:resource="http://purl.org/dc/dcmitype/StillImage" />
        <dc:title></dc:title>
      </cc:Work>
    </rdf:RDF>
  </metadata>
  <g
     transform="translate(-380.84123,-731.94336)"
     id="layer1">
    <path
       style="fill:#151515"
       d="m 402.02839,791.08551 c -21.60093,-7.07847 -28.30747,-34.12734 -12.50015,-50.4157 6.08302,-6.26814 12.16899,-8.72645 21.60385,-8.72645 9.30324,0 15.41711,2.41711 21.5,8.5 6.08289,6.08289 8.5,12.19676 8.5,21.5 0,9.30324 -2.41711,15.41711 -8.5,21.5 -7.54315,7.54315 -20.80206,10.85407 -30.6037,7.64215 z m 18.77941,-3.61692 c 10.1952,-3.87387 17.82429,-14.81055 17.82429,-25.55202 0,-14.39667 -13.10204,-27.47321 -27.52679,-27.47321 -10.63016,0 -21.73449,7.73694 -25.48277,17.75511 -8.26014,22.0772 13.22515,43.61431 35.18527,35.27012 z m -16.63114,-8.27523 c -0.21596,-0.6875 -0.92095,-2.96541 -1.56663,-5.06202 -0.74382,-2.41525 -2.02274,-4.13471 -3.49039,-4.69271 -2.73063,-1.03819 -3.92668,-4.10951 -3.01496,-7.74207 0.57136,-2.27648 0.45741,-2.43999 -0.90971,-1.30539 -2.02798,1.68307 -1.9997,5.47251 0.0562,7.52838 2.28885,2.28885 0.81686,3.22827 -1.61291,1.02936 -2.29294,-2.07508 -2.71841,-7.66952 -0.71005,-9.33632 0.71285,-0.59161 2.17535,-1.01694 3.25,-0.94519 4.72593,0.31557 18.59942,-8.25452 20.6507,-12.75658 3.52111,-7.728 10.82181,3.88594 11.14624,17.73143 0.20473,8.73706 -0.74708,9.7502 -7.09122,7.54814 -2.6135,-0.90714 -5.87681,-1.87268 -7.25181,-2.14563 -1.375,-0.27296 -0.14131,-0.31659 2.74152,-0.097 5.19117,0.39548 5.22814,0.37816 3.84817,-1.80256 -0.76635,-1.21103 -1.66891,-3.77688 -2.00567,-5.70188 -0.57209,-3.27006 -0.49641,-3.20942 1.15183,0.92292 0.97028,2.4326 2.21415,4.2326 2.76415,4 2.43157,-1.02836 -0.73819,-15.92292 -3.38861,-15.92292 -0.54486,0 -1.16718,1.6875 -1.38292,3.75 l -0.39226,3.75 -0.16811,-4.20612 -0.1681,-4.20612 -6.25,4.27674 c -7.86756,5.38359 -9.43153,8.79235 -5.56138,12.12132 1.5821,1.36087 2.28325,2.64231 1.74193,3.18363 -0.54132,0.54132 -0.10591,2.39877 1.08173,4.61465 1.09325,2.03976 1.98772,4.38528 1.98772,5.21228 0,1.8472 -4.88353,2.07423 -5.45543,0.25362 z"
       id="path3464" />
  </g>
</svg>
