<?xml version="1.0" encoding="UTF-8" standalone="no"?>
<svg
   width="60.574089"
   height="60.351246"
   viewBox="0 0 60.57409 60.351247"
   id="svg2"
   version="1.1">
  <defs
     id="defs4" />
  <metadata
     id="metadata7">
    <rdf:RDF>
      <cc:Work
         rdf:about="">
        <dc:format>image/svg+xml</dc:format>
        <dc:type
           rdf:resource="http://purl.org/dc/dcmitype/StillImage" />
        <dc:title></dc:title>
      </cc:Work>
    </rdf:RDF>
  </metadata>
  <g
     transform="translate(-2.0286818,-989.75172)"
     id="layer1">
    <path
       style="fill:#101010"
       d="m 23.443053,1049.0903 c -9.73381,-3.1978 -18.1898903,-12.2277 -20.5854503,-21.9822 -3.3527,-13.652 3.71567,-28.39473 16.6709403,-34.77113 7.00349,-3.447 18.82725,-3.447 25.83074,0 6.05648,2.9809 11.7189,8.68743 14.77311,14.88803 3.33786,6.7764 3.28595,18.7129 -0.11139,25.6157 -5.10738,10.3772 -14.49118,16.6049 -25.93451,17.2117 -3.78843,0.2009 -8.36165,-0.2125 -10.64344,-0.9621 z m 18.67657,-3.6473 c 10.1952,-3.8739 17.82429,-14.8105 17.82429,-25.552 0,-14.3967 -13.10204,-27.47323 -27.52679,-27.47323 -10.63016,0 -21.7345,7.73693 -25.4827703,17.75513 -8.26014,22.0772 13.2251503,43.6143 35.1852703,35.2701 z m -21.88596,-11.0252 c -0.28766,-1.1 -0.98892,-2 -1.55836,-2 -0.69081,0 -0.83614,-4.2159 -0.43674,-12.6689 0.75016,-15.8765 1.26958,-16.6188 12.00941,-17.1611 10.10365,-0.5102 14.17219,1.2396 15.03569,6.4666 1.02804,6.2229 0.77878,23.3634 -0.33975,23.3634 -0.55,0 -1,0.9 -1,2 0,1.3333 -0.66667,2 -2,2 -1.33333,0 -2,-0.6667 -2,-2 0,-1.8194 -0.66667,-2 -7.38337,-2 -6.54236,0 -7.44294,0.2278 -7.90638,2 -0.28766,1.1 -1.28227,2 -2.21025,2 -0.92798,0 -1.9226,-0.9 -2.21025,-2 z m 4.03491,-7.658 c 0.36189,-0.3619 0.15219,-1.2674 -0.46601,-2.0123 -0.8443,-1.0173 -1.46153,-1.0743 -2.48032,-0.2287 -0.74597,0.6191 -1.10971,1.5246 -0.8083,2.0123 0.64272,1.0399 2.81129,1.172 3.75463,0.2287 z m 19.48497,-1.092 c -0.18536,-0.9625 -0.9997,-1.75 -1.80963,-1.75 -0.80994,0 -1.62427,0.7875 -1.80963,1.75 -0.23646,1.2278 0.30348,1.75 1.80963,1.75 1.50615,0 2.04609,-0.5222 1.80963,-1.75 z m -0.30781,-7.253 c 0.34091,-0.5516 0.31417,-3.0413 -0.0594,-5.5326 l -0.67926,-4.5297 -10.63157,0.2827 -10.63156,0.2826 -0.54807,4.1058 c -0.30144,2.2582 -0.37644,4.6207 -0.16667,5.25 0.48637,1.4591 21.82009,1.5918 22.71656,0.1412 z m -4.50182,-12.997 c 0,-0.5632 -2.81366,-1 -6.44098,-1 -3.54254,0 -6.7191,0.45 -7.05902,1 -0.38973,0.6306 1.98962,1 6.44098,1 4.03935,0 7.05902,-0.4278 7.05902,-1 z"
       id="path3425" />
  </g>
</svg>
