<?xml version="1.0" encoding="UTF-8" standalone="no"?>
<svg
   xmlns:dc="http://purl.org/dc/elements/1.1/"
   xmlns:cc="http://creativecommons.org/ns#"
   xmlns:rdf="http://www.w3.org/1999/02/22-rdf-syntax-ns#"
   xmlns:svg="http://www.w3.org/2000/svg"
   xmlns="http://www.w3.org/2000/svg"
   width="17.029039mm"
   height="17.022318mm"
   viewBox="0 0 60.339116 60.315299"
   id="svg2"
   version="1.1">
  <defs
     id="defs4" />
  <metadata
     id="metadata7">
    <rdf:RDF>
      <cc:Work
         rdf:about="">
        <dc:format>image/svg+xml</dc:format>
        <dc:type
           rdf:resource="http://purl.org/dc/dcmitype/StillImage" />
        <dc:title></dc:title>
      </cc:Work>
    </rdf:RDF>
  </metadata>
  <g
     transform="translate(-367.66098,-789.29942)"
     id="layer1">
    <path
       style="fill:#202020"
       d="m 387.99238,848.03371 c -21.27733,-7.61755 -27.24688,-34.5096 -11.21853,-50.53795 5.99149,-5.99149 11.70144,-8.19634 21.22625,-8.19634 9.52481,0 15.23476,2.20485 21.22625,8.19634 6.35437,6.35437 8.77375,12.35853 8.77375,21.77375 0,9.41522 -2.41938,15.41938 -8.77375,21.77374 -7.72961,7.72963 -20.92213,10.68223 -31.23397,6.99046 z m 19.92791,-3.32022 c 3.88651,-1.45413 6.79801,-3.50505 9.94548,-7.0058 10.4606,-11.63471 10.14202,-26.56092 -0.80045,-37.5034 -11.29236,-11.29235 -26.83808,-11.29235 -38.13044,0 -10.94362,10.94362 -11.26112,25.86863 -0.79786,37.50628 7.66545,8.52583 18.74813,11.13169 29.78327,7.00292 z m -13.42019,-8.87663 c -10.11716,-2.01489 -16.30348,-11.31084 -14.08828,-21.16995 1.94487,-8.65601 8.75208,-13.85322 18.181,-13.88095 10.71972,-0.0315 18.90728,7.39109 18.90728,17.14083 l 0,3.84272 -12,0 c -10.45456,0 -12,0.21118 -12,1.63976 0,1.99479 2.82853,4.28506 5.34571,4.32844 1.01514,0.0175 3.10837,-0.71408 4.65163,-1.6257 2.44674,-1.44533 3.39457,-1.49269 7.4043,-0.37004 2.5291,0.7081 4.59836,1.59479 4.59836,1.97041 0,1.24044 -5.4541,5.91294 -8,6.85355 -4.08054,1.50761 -9.26604,2.01457 -13,1.27093 z m 10,-21.87622 c 0,-1.49419 -2.48153,-3.98372 -4.59287,-4.60767 -2.11337,-0.62455 -7.40713,2.58376 -7.40713,4.48912 0,0.51008 2.7,0.92742 6,0.92742 3.3,0 6,-0.36399 6,-0.80887 z"
       id="path3499" />
  </g>
</svg>
