<?xml version="1.0" encoding="UTF-8" standalone="no"?>
<svg
   xmlns:dc="http://purl.org/dc/elements/1.1/"
   xmlns:cc="http://creativecommons.org/ns#"
   xmlns:rdf="http://www.w3.org/1999/02/22-rdf-syntax-ns#"
   xmlns:svg="http://www.w3.org/2000/svg"
   xmlns="http://www.w3.org/2000/svg"
   width="17.029039mm"
   height="17.022318mm"
   viewBox="0 0 60.339116 60.315299"
   id="svg2"
   version="1.1">
  <defs
     id="defs4" />
  <metadata
     id="metadata7">
    <rdf:RDF>
      <cc:Work
         rdf:about="">
        <dc:format>image/svg+xml</dc:format>
        <dc:type
           rdf:resource="http://purl.org/dc/dcmitype/StillImage" />
        <dc:title></dc:title>
      </cc:Work>
    </rdf:RDF>
  </metadata>
  <g
     transform="translate(-403.26885,-792.32986)"
     id="layer1">
    <path
       style="fill:#202020"
       d="m 423.60025,851.06415 c -21.27733,-7.61755 -27.24688,-34.5096 -11.21853,-50.53795 5.99149,-5.99149 11.70144,-8.19634 21.22625,-8.19634 9.52481,0 15.23476,2.20485 21.22626,8.19634 6.35436,6.35437 8.77374,12.35853 8.77374,21.77375 0,9.41522 -2.41938,15.41938 -8.77374,21.77374 -7.72963,7.72963 -20.92214,10.68223 -31.23398,6.99046 z m 19.92791,-3.32022 c 3.88651,-1.45413 6.79801,-3.50505 9.94548,-7.0058 10.4606,-11.63471 10.14202,-26.56092 -0.80045,-37.5034 -11.29236,-11.29235 -26.83808,-11.29235 -38.13044,0 -10.94362,10.94362 -11.26112,25.86863 -0.79786,37.50628 7.66545,8.52583 18.74813,11.13169 29.78327,7.00292 z m -12.23355,-10.19398 c 0.23901,-2.47888 0.78789,-3.25 2.31336,-3.25 1.52546,0 2.07435,0.77112 2.31336,3.25 0.28167,2.92134 0.0477,3.25 -2.31336,3.25 -2.36109,0 -2.59503,-0.32866 -2.31336,-3.25 z m -9.18664,-5.58104 -4.5,-0.66896 0,-11 c 0,-10.07369 0.15508,-10.98702 1.84157,-10.84585 1.34806,0.11284 1.70812,-0.35612 1.34362,-1.75 -0.27388,-1.04728 -0.0901,-1.90415 0.40843,-1.90415 0.49851,0 0.90638,0.64844 0.90638,1.44098 0,0.79254 0.49821,1.7489 1.10713,2.12523 0.74503,0.46045 0.88652,-0.0108 0.43262,-1.44098 -0.4002,-1.26089 -0.24042,-2.12523 0.39286,-2.12523 0.58707,0 1.06739,0.64306 1.06739,1.42903 0,1.10911 2.01536,1.50089 9.0023,1.75 8.02991,0.2863 9.00204,0.13194 9,-1.42903 -0.001,-1.0841 0.75873,-1.75 1.9977,-1.75 1.1,0 2,0.62685 2,1.39301 0,0.76616 0.675,1.65203 1.5,1.96862 1.2012,0.46094 1.5,2.66169 1.5,11.04797 0,5.7598 -0.42143,10.73282 -0.93652,11.05117 -1.47375,0.91082 -22.07413,1.44989 -27.06348,0.70819 z m 6.4685,-9.16896 c 0.44606,0 1.38633,0.78679 2.0895,1.74843 2.21277,3.02614 2.57944,0.71691 0.69294,-4.36401 -0.99746,-2.68643 -2.43432,-4.88442 -3.19303,-4.88442 -1.40536,0 -3.844,5.45378 -3.98183,8.90499 -0.0712,1.78254 0.0415,1.7986 1.75266,0.25 1.00581,-0.91025 2.1937,-1.65499 2.63976,-1.65499 z m -1.4685,-2.94098 c 0,-0.51754 0.45,-1.2191 1,-1.55902 0.55,-0.33992 1,0.0835 1,0.94098 0,0.85746 -0.45,1.55902 -1,1.55902 -0.55,0 -1,-0.42344 -1,-0.94098 z m 13.83459,4.34429 c 3.04326,-2.13159 2.57298,-6.3332 -0.92777,-8.28894 -4.02859,-2.25062 -5.90682,-0.91907 -5.90682,4.18758 0,2.40059 0.3,4.66472 0.66667,5.03138 1.13729,1.1373 3.78676,0.7378 6.16792,-0.93002 z m -3.83459,-3.81998 c 0,-3.86638 0.98675,-4.50914 3.06957,-1.99951 0.92947,1.11995 1.01763,2.05439 0.301,3.19048 -1.92482,3.05148 -3.37057,2.54063 -3.37057,-1.19097 z m 8.60417,-13.3125 c -1.01652,-1.01651 -1.85525,0.51389 -1.02122,1.86339 0.63003,1.01941 0.86558,1.0202 1.2043,0.004 0.2316,-0.69478 0.14921,-1.53512 -0.18308,-1.86741 z"
       id="path3477" />
  </g>
</svg>
