<?xml version="1.0" encoding="UTF-8" standalone="no"?>
<svg
   xmlns:dc="http://purl.org/dc/elements/1.1/"
   xmlns:cc="http://creativecommons.org/ns#"
   xmlns:rdf="http://www.w3.org/1999/02/22-rdf-syntax-ns#"
   xmlns:svg="http://www.w3.org/2000/svg"
   xmlns="http://www.w3.org/2000/svg"
   version="1.1"
   id="svg2"
   viewBox="0 0 60.290862 60.364953"
   height="17.036331mm"
   width="17.015421mm">
  <defs
     id="defs4" />
  <metadata
     id="metadata7">
    <rdf:RDF>
      <cc:Work
         rdf:about="">
        <dc:format>image/svg+xml</dc:format>
        <dc:type
           rdf:resource="http://purl.org/dc/dcmitype/StillImage" />
        <dc:title></dc:title>
      </cc:Work>
    </rdf:RDF>
  </metadata>
  <g
     transform="translate(-376.29555,-726.13499)"
     id="layer1">
    <path
       id="path3451"
       d="m 397.48271,785.27714 c -21.60093,-7.07847 -28.30747,-34.12734 -12.50015,-50.4157 6.08302,-6.26814 12.16899,-8.72645 21.60385,-8.72645 9.30324,0 15.41711,2.41711 21.5,8.5 6.08289,6.08289 8.5,12.19676 8.5,21.5 0,9.30324 -2.41711,15.41711 -8.5,21.5 -7.54315,7.54315 -20.80206,10.85407 -30.6037,7.64215 z m 18.77941,-3.61692 c 10.1952,-3.87387 17.82429,-14.81055 17.82429,-25.55202 0,-14.39667 -13.10204,-27.47321 -27.52679,-27.47321 -10.63016,0 -21.7345,7.73693 -25.48277,17.75511 -8.26014,22.0772 13.22515,43.61431 35.18527,35.27012 z m -15.17571,-10.07523 c 0,-2.92618 8.32957,-4.13949 9.39301,-1.36821 0.33384,0.86998 0.60699,1.65748 0.60699,1.75 0,0.0925 -2.25,0.16821 -5,0.16821 -2.75,0 -5,-0.2475 -5,-0.55 z m -11.44333,-4.72666 c -0.30617,-0.30617 -0.55667,-5.43167 -0.55667,-11.39001 l 0,-10.83333 10.55902,0 c 6.7847,0 10.3381,0.35745 9.94098,1 -0.33992,0.55 -4.64148,1 -9.55902,1 l -8.94098,0 0,8 0,8 15,0 15,0 0,-8 c 0,-7.91587 -0.0269,-8 -2.55902,-8 -1.45136,0 -2.2915,-0.43284 -1.94098,-1 0.33992,-0.55 1.95621,-1 3.59177,-1 l 2.97373,0 -0.28275,11.25 -0.28275,11.25 -16.19333,0.14 c -8.90633,0.077 -16.44383,-0.11049 -16.75,-0.41666 z m 10.41352,-8.16765 c 1.49765,-2.79838 2.633,-3.23875 4.02519,-1.56125 1.00946,1.21632 0.75696,1.64922 -1.45179,2.48899 -3.61102,1.3729 -3.77334,1.31438 -2.5734,-0.92774 z m 4.02981,-2.9052 c 0,-1.78345 10.69144,-15.65997 12.30495,-15.9707 3.31761,-0.63892 1.65665,3.0048 -4.50878,9.89106 -5.85046,6.53447 -7.79617,8.05179 -7.79617,6.07964 z"
       style="fill:#161616" />
  </g>
</svg>
